<?xml version="1.0" encoding="UTF-8" standalone="no"?>
<!-- Created with Inkscape (http://www.inkscape.org/) -->

<svg
   xmlns:osb="http://www.openswatchbook.org/uri/2009/osb"
   xmlns:dc="http://purl.org/dc/elements/1.1/"
   xmlns:cc="http://creativecommons.org/ns#"
   xmlns:rdf="http://www.w3.org/1999/02/22-rdf-syntax-ns#"
   xmlns:svg="http://www.w3.org/2000/svg"
   xmlns="http://www.w3.org/2000/svg"
   xmlns:sodipodi="http://sodipodi.sourceforge.net/DTD/sodipodi-0.dtd"
   xmlns:inkscape="http://www.inkscape.org/namespaces/inkscape"
   width="108"
   height="108"
   viewBox="0 0 28.574999 28.574999"
   version="1.1"
   id="svg8"
   inkscape:version="0.92.4 5da689c313, 2019-01-14"
   sodipodi:docname="icon.svg">
  <defs
     id="defs2">
    <linearGradient
       id="linearGradient6252"
       osb:paint="solid">
      <stop
         style="stop-color:#cfd8dc;stop-opacity:1;"
         offset="0"
         id="stop6250" />
    </linearGradient>
    <linearGradient
       id="linearGradient6212"
       osb:paint="solid">
      <stop
         style="stop-color:#ffffff;stop-opacity:1;"
         offset="0"
         id="stop6210" />
    </linearGradient>
    <linearGradient
       id="linearGradient6185"
       osb:paint="solid">
      <stop
         style="stop-color:#ffffff;stop-opacity:1;"
         offset="0"
         id="stop6183" />
    </linearGradient>
    <linearGradient
       id="linearGradient4616"
       osb:paint="solid">
      <stop
         style="stop-color:#000000;stop-opacity:1;"
         offset="0"
         id="stop4614" />
    </linearGradient>
    <clipPath
       id="clipPath3037"
       clipPathUnits="userSpaceOnUse">
      <path
         inkscape:connector-curvature="0"
         id="path3035"
         d="M 0,815 H 850 V 0 H 0 Z" />
    </clipPath>
    <clipPath
       id="clipPath3297"
       clipPathUnits="userSpaceOnUse">
      <path
         inkscape:connector-curvature="0"
         id="path3295"
         d="M 0,815 H 850 V 0 H 0 Z" />
    </clipPath>
  </defs>
  <sodipodi:namedview
     id="base"
     pagecolor="#000000"
     bordercolor="#666666"
     borderopacity="1.0"
     inkscape:pageopacity="0"
     inkscape:pageshadow="2"
     inkscape:zoom="4"
     inkscape:cx="83.293329"
     inkscape:cy="57.611789"
     inkscape:document-units="mm"
     inkscape:current-layer="layer1"
     showgrid="false"
     units="px"
     inkscape:snap-grids="true"
     inkscape:pagecheckerboard="true"
     inkscape:window-width="958"
     inkscape:window-height="1018"
     inkscape:window-x="960"
     inkscape:window-y="31"
     inkscape:window-maximized="0"
     inkscape:snap-midpoints="true" />
  <metadata
     id="metadata5">
    <rdf:RDF>
      <cc:Work
         rdf:about="">
        <dc:format>image/svg+xml</dc:format>
        <dc:type
           rdf:resource="http://purl.org/dc/dcmitype/StillImage" />
        <dc:title />
      </cc:Work>
    </rdf:RDF>
  </metadata>
  <g
     inkscape:label="レイヤー 1"
     inkscape:groupmode="layer"
     id="layer1"
     transform="translate(0,-268.42501)">
    <path
       style="opacity:0.50199998;fill:#fbfdfd;fill-opacity:1;fill-rule:nonzero;stroke:none;stroke-width:0.79241341;stroke-opacity:1;paint-order:markers fill stroke"
       d="m -26.177731,266.98169 1.740463,1.74046 c -0.0071,-0.009 -0.01358,-0.0184 -0.02067,-0.0274 -0.503475,-0.63836 -1.082686,-1.21204 -1.719792,-1.71307 z"
       id="path2413" />
    <path
       style="opacity:0.50199998;fill:#fbfdfd;fill-opacity:1;fill-rule:nonzero;stroke:none;stroke-width:0.79241341;stroke-opacity:1;paint-order:markers fill stroke"
       d="m -48.191374,290.91459 -0.236161,-0.23667 c 0.03512,0.0466 0.06912,0.0941 0.111621,0.13642 0.03895,0.038 0.0822,0.068 0.12454,0.10025 z"
       id="path2409" />
    <text
       xml:space="preserve"
       style="font-style:normal;font-variant:normal;font-weight:normal;font-stretch:normal;font-size:4.66013908px;line-height:1.25;font-family:Roboto;-inkscape-font-specification:Roboto;letter-spacing:0px;word-spacing:0px;fill:#000000;fill-opacity:1;stroke:none;stroke-width:0.11650348;"
       x="10.799449"
       y="257.61945"
       id="text6362"
       transform="scale(0.90483034,1.1051796)"><tspan
         sodipodi:role="line"
         x="10.799449"
         y="262.30234"
         style="font-style:normal;font-variant:normal;font-weight:normal;font-stretch:normal;font-family:Roboto;-inkscape-font-specification:Roboto;stroke-width:0.11650348;"
         id="tspan6364" /></text>
    <g
       id="g2564"
       transform="matrix(0.61538462,0,0,0.61538462,5.4341346,108.67452)">
      <path
         id="path2411"
         d="m 25.304398,273.48465 c 0.350414,0.44699 0.663633,0.92341 0.938444,1.42472 0.003,0.005 0.0053,0.0108 0.0078,0.0155 0.131271,0.2406 0.254268,0.48617 0.366902,0.73794 0.04182,0.0938 0.07528,0.19058 0.114204,0.28525 0.06915,0.16868 0.14015,0.33569 0.201023,0.5085 0.03561,0.10208 0.06279,0.20721 0.09508,0.31058 0.05467,0.1728 0.111548,0.34427 0.157096,0.52038 0.01532,0.06 0.02522,0.1205 0.03927,0.18086 0.185515,0.77475 0.291248,1.58026 0.292489,2.41123 0.0083,5.7514 -4.657459,10.41848 -10.413834,10.42675 -0.86919,9.3e-4 -1.711116,-0.10761 -2.518193,-0.30644 -0.02651,-0.007 -0.05307,-0.0113 -0.07958,-0.0181 -0.195041,-0.0495 -0.384674,-0.11121 -0.575159,-0.17156 -0.08572,-0.0273 -0.172974,-0.0487 -0.257866,-0.078 -0.173919,-0.0604 -0.342127,-0.13146 -0.511079,-0.20051 -0.09565,-0.0389 -0.193424,-0.0725 -0.287838,-0.1142 -0.199181,-0.0881 -0.392422,-0.1878 -0.584977,-0.28784 -0.0588,-0.031 -0.119482,-0.0569 -0.178284,-0.0889 -0.50727,-0.27698 -0.990197,-0.59406 -1.442806,-0.94878 l -7.4724119,7.48171 c -0.2418321,0.24227 -0.5628458,0.36753 -0.8841838,0.36794 -0.267138,2.6e-4 -0.5342384,-0.0928 -0.7601604,-0.26459 l 1.3229167,1.32292 H 28.575 v -20.24476 z"
         style="opacity:0.50199998;fill:#7ebcc2;fill-opacity:1;fill-rule:nonzero;stroke:none;stroke-width:0.79241341;stroke-opacity:1;paint-order:markers fill stroke"
         inkscape:connector-curvature="0" />
      <path
         d="m 9.2661899,279.90631 c 0.0025,1.70326 0.5511639,3.27671 1.4874401,4.55787 0.489463,0.68257 1.086593,1.27705 1.77151,1.76735 1.286188,0.93102 2.867627,1.47464 4.573711,1.47217 4.313657,-0.006 7.816511,-3.51401 7.810298,-7.82012 -0.0025,-1.70328 -0.551163,-3.28086 -1.487025,-4.56244 -0.489049,-0.67799 -1.090734,-1.27662 -1.77151,-1.76321 -1.286188,-0.93059 -2.868041,-1.47382 -4.574125,-1.47133 -4.313243,0.006 -7.8165111,3.5136 -7.8102991,7.81971 m -7.8430127,13.90021 7.4686684,-7.47785 c -0.3586093,-0.45308 -0.6782916,-0.93802 -0.9582221,-1.44818 -0.0087,-0.0162 -0.015731,-0.0331 -0.024852,-0.0492 -0.1242287,-0.22985 -0.2422472,-0.46343 -0.3494981,-0.70321 -0.047213,-0.10546 -0.085713,-0.21456 -0.129199,-0.32163 -0.063352,-0.15586 -0.1300259,-0.31048 -0.1863435,-0.47046 -0.039759,-0.1137 -0.070398,-0.2307 -0.1064185,-0.34604 -0.050518,-0.16081 -0.1035195,-0.32039 -0.1461759,-0.48493 -0.017806,-0.0691 -0.029407,-0.13973 -0.045556,-0.20961 -0.1817879,-0.76688 -0.2853138,-1.56352 -0.2865555,-2.38538 -0.00213,-1.39817 0.2741333,-2.73143 0.7727064,-3.95059 0.00574,-0.0141 0.010796,-0.0281 0.016565,-0.0421 0.057565,-0.13849 0.1184315,-0.27492 0.181374,-0.41011 0.00833,-0.0182 0.016148,-0.0363 0.024426,-0.0546 0.065843,-0.13933 0.135824,-0.27659 0.2074638,-0.4126 0.00657,-0.0119 0.012417,-0.0249 0.019056,-0.0372 1.751634,-3.27919 5.2081078,-5.51369 9.1921428,-5.51948 0.847244,-9.1e-4 1.669228,0.10418 2.458499,0.29395 0.04844,0.0118 0.09773,0.019 0.145762,0.0314 0.174749,0.0446 0.344529,0.10043 0.515965,0.1538 0.105186,0.0327 0.212019,0.06 0.315957,0.0963 0.172265,0.0595 0.339146,0.13064 0.50727,0.19926 0.09483,0.0384 0.192142,0.0719 0.285728,0.11367 0.792583,0.35098 1.533404,0.79705 2.206313,1.32623 0.659658,0.51138 1.257201,1.10173 1.775651,1.75908 0.359023,0.45475 0.678707,0.94092 0.959051,1.45232 0.003,0.005 0.0049,0.0106 0.0074,0.0153 0.131271,0.2406 0.254258,0.48659 0.366891,0.73836 0.04182,0.0938 0.07537,0.19016 0.114295,0.28483 0.06915,0.16868 0.14038,0.33569 0.201252,0.5085 0.03561,0.10208 0.06295,0.20753 0.09524,0.3109 0.05467,0.1728 0.111395,0.34395 0.156943,0.52006 0.01531,0.06 0.02526,0.12072 0.03933,0.18108 0.185516,0.77475 0.291111,1.58048 0.292353,2.41145 0.0083,5.7514 -4.657358,10.41842 -10.413733,10.42669 -0.86919,9.2e-4 -1.71105,-0.10793 -2.518127,-0.30676 -0.02651,-0.007 -0.05342,-0.0106 -0.07993,-0.0174 -0.195041,-0.0495 -0.384697,-0.11121 -0.575182,-0.17156 -0.08572,-0.0273 -0.172679,-0.0492 -0.25757,-0.0785 -0.17392,-0.0604 -0.342458,-0.13146 -0.51141,-0.20051 -0.09565,-0.0389 -0.19297,-0.0728 -0.287384,-0.11449 -0.199181,-0.0881 -0.392565,-0.1877 -0.58512,-0.28774 -0.0588,-0.031 -0.119674,-0.057 -0.178476,-0.089 -0.50727,-0.27698 -0.990108,-0.59407 -1.442717,-0.94879 l -7.4723954,7.48196 c -0.2418324,0.24227 -0.5627592,0.36753 -0.8840981,0.36794 -0.3171989,4.3e-4 -0.6381258,-0.12401 -0.8849267,-0.36504 -0.48863601,-0.487 -0.48987767,-1.27785 -0.0025,-1.77023"
         style="fill:#d7eaeb;fill-opacity:1;fill-rule:nonzero;stroke:none;stroke-width:0.41375542"
         id="path3309"
         inkscape:connector-curvature="0" />
      <g
         id="text2446"
         style="font-style:normal;font-variant:normal;font-weight:bold;font-stretch:normal;font-size:8.57598209px;line-height:1.25;font-family:Roboto;-inkscape-font-specification:'Roboto Bold';letter-spacing:0px;word-spacing:0px;fill:#32aaac;fill-opacity:1;stroke:none;stroke-width:0.21439955"
         aria-label="Aa">
        <path
           id="path2456"
           style="fill:#32aaac;fill-opacity:1;stroke-width:0.21439955"
           d="m 15.969263,281.5048 h -2.202621 l -0.418749,1.25625 h -1.33581 l 2.269621,-6.09699 h 1.164122 l 2.282183,6.09699 h -1.33581 z m -1.863434,-1.01756 h 1.524247 l -0.766311,-2.28218 z"
           inkscape:connector-curvature="0" />
        <path
           id="path2458"
           style="fill:#32aaac;fill-opacity:1;stroke-width:0.21439955"
           d="m 20.843502,282.76105 q -0.08375,-0.16331 -0.121437,-0.40619 -0.439687,0.48994 -1.143185,0.48994 -0.665811,0 -1.105498,-0.38525 -0.435499,-0.38525 -0.435499,-0.9715 0,-0.72025 0.531812,-1.1055 0.535998,-0.38525 1.545184,-0.38943 h 0.556936 v -0.25963 q 0,-0.31406 -0.163312,-0.5025 -0.159125,-0.18843 -0.506686,-0.18843 -0.305687,0 -0.481562,0.14656 -0.171687,0.14656 -0.171687,0.402 h -1.210185 q 0,-0.39363 0.242874,-0.72863 0.242875,-0.335 0.686749,-0.52343 0.443874,-0.19263 0.996623,-0.19263 0.837498,0 1.327435,0.42294 0.494124,0.41875 0.494124,1.18087 v 1.96393 q 0.0042,0.64488 0.180062,0.97569 v 0.0712 z m -1.00081,-0.84169 q 0.267999,0 0.494124,-0.11725 0.226124,-0.12144 0.334999,-0.32243 v -0.77888 h -0.452249 q -0.908685,0 -0.96731,0.62813 l -0.0042,0.0712 q 0,0.22613 0.159125,0.37269 0.159124,0.14656 0.435499,0.14656 z"
           inkscape:connector-curvature="0" />
      </g>
    </g>
  </g>
</svg>
