<?xml version="1.0" encoding="UTF-8" standalone="no"?>
<!-- Created with Inkscape (http://www.inkscape.org/) -->

<svg
   xmlns:osb="http://www.openswatchbook.org/uri/2009/osb"
   xmlns:dc="http://purl.org/dc/elements/1.1/"
   xmlns:cc="http://creativecommons.org/ns#"
   xmlns:rdf="http://www.w3.org/1999/02/22-rdf-syntax-ns#"
   xmlns:svg="http://www.w3.org/2000/svg"
   xmlns="http://www.w3.org/2000/svg"
   xmlns:sodipodi="http://sodipodi.sourceforge.net/DTD/sodipodi-0.dtd"
   xmlns:inkscape="http://www.inkscape.org/namespaces/inkscape"
   width="512"
   height="512"
   viewBox="0 0 135.46666 135.46666"
   version="1.1"
   id="svg8"
   inkscape:version="0.92.4 5da689c313, 2019-01-14"
   sodipodi:docname="icon._web.svg"
   inkscape:export-filename="/home/sk/Picture/promotion_pictures/icon_web.png"
   inkscape:export-xdpi="96"
   inkscape:export-ydpi="96">
  <defs
     id="defs2">
    <linearGradient
       id="linearGradient6252"
       osb:paint="solid">
      <stop
         style="stop-color:#cfd8dc;stop-opacity:1;"
         offset="0"
         id="stop6250" />
    </linearGradient>
    <linearGradient
       id="linearGradient6212"
       osb:paint="solid">
      <stop
         style="stop-color:#ffffff;stop-opacity:1;"
         offset="0"
         id="stop6210" />
    </linearGradient>
    <linearGradient
       id="linearGradient6185"
       osb:paint="solid">
      <stop
         style="stop-color:#ffffff;stop-opacity:1;"
         offset="0"
         id="stop6183" />
    </linearGradient>
    <linearGradient
       id="linearGradient4616"
       osb:paint="solid">
      <stop
         style="stop-color:#000000;stop-opacity:1;"
         offset="0"
         id="stop4614" />
    </linearGradient>
    <clipPath
       id="clipPath3037"
       clipPathUnits="userSpaceOnUse">
      <path
         inkscape:connector-curvature="0"
         id="path3035"
         d="M 0,815 H 850 V 0 H 0 Z" />
    </clipPath>
    <clipPath
       id="clipPath3297"
       clipPathUnits="userSpaceOnUse">
      <path
         inkscape:connector-curvature="0"
         id="path3295"
         d="M 0,815 H 850 V 0 H 0 Z" />
    </clipPath>
  </defs>
  <sodipodi:namedview
     id="base"
     pagecolor="#000000"
     bordercolor="#666666"
     borderopacity="1.0"
     inkscape:pageopacity="0"
     inkscape:pageshadow="2"
     inkscape:zoom="0.5"
     inkscape:cx="-108.36344"
     inkscape:cy="252.19333"
     inkscape:document-units="mm"
     inkscape:current-layer="layer1"
     showgrid="false"
     units="px"
     inkscape:snap-grids="true"
     inkscape:pagecheckerboard="true"
     inkscape:window-width="958"
     inkscape:window-height="1018"
     inkscape:window-x="960"
     inkscape:window-y="31"
     inkscape:window-maximized="0"
     inkscape:snap-midpoints="true"
     showguides="false" />
  <metadata
     id="metadata5">
    <rdf:RDF>
      <cc:Work
         rdf:about="">
        <dc:format>image/svg+xml</dc:format>
        <dc:type
           rdf:resource="http://purl.org/dc/dcmitype/StillImage" />
        <dc:title />
      </cc:Work>
    </rdf:RDF>
  </metadata>
  <g
     inkscape:label="レイヤー 1"
     inkscape:groupmode="layer"
     id="layer1"
     transform="translate(0,-161.53334)">
    <path
       style="opacity:0.50199998;fill:#fbfdfd;fill-opacity:1;fill-rule:nonzero;stroke:none;stroke-width:0.79241341;stroke-opacity:1;paint-order:markers fill stroke"
       d="m -26.177731,266.98169 1.740463,1.74046 c -0.0071,-0.009 -0.01358,-0.0184 -0.02067,-0.0274 -0.503475,-0.63836 -1.082686,-1.21204 -1.719792,-1.71307 z"
       id="path2413"
       inkscape:connector-curvature="0" />
    <path
       style="opacity:0.50199998;fill:#fbfdfd;fill-opacity:1;fill-rule:nonzero;stroke:none;stroke-width:0.79241341;stroke-opacity:1;paint-order:markers fill stroke"
       d="m -48.191374,290.91459 -0.236161,-0.23667 c 0.03512,0.0466 0.06912,0.0941 0.111621,0.13642 0.03895,0.038 0.0822,0.068 0.12454,0.10025 z"
       id="path2409"
       inkscape:connector-curvature="0" />
    <text
       xml:space="preserve"
       style="font-style:normal;font-variant:normal;font-weight:normal;font-stretch:normal;font-size:4.66013908px;line-height:1.25;font-family:Roboto;-inkscape-font-specification:Roboto;letter-spacing:0px;word-spacing:0px;fill:#000000;fill-opacity:1;stroke:none;stroke-width:0.11650348"
       x="10.799449"
       y="257.61945"
       id="text6362"
       transform="scale(0.90483034,1.1051796)"><tspan
         sodipodi:role="line"
         x="10.799449"
         y="261.90454"
         style="font-style:normal;font-variant:normal;font-weight:normal;font-stretch:normal;font-family:Roboto;-inkscape-font-specification:Roboto;stroke-width:0.11650348"
         id="tspan6364" /></text>
    <rect
       style="fill:#95d7dd;fill-opacity:1;fill-rule:evenodd;stroke-width:0.42147607"
       id="rect45"
       width="135.46666"
       height="135.46666"
       x="1.4210855e-14"
       y="161.53334"
       ry="14.816667" />
    <path
       inkscape:connector-curvature="0"
       id="path3309"
       style="fill:#d7eaeb;fill-opacity:1;fill-rule:nonzero;stroke:none;stroke-width:1.95738137"
       d="m 44.121142,216.13361 c 0.01183,8.05773 2.607429,15.50136 7.036736,21.56223 2.315536,3.22908 5.14042,6.04143 8.380604,8.36092 6.084659,4.40444 13.566082,6.97619 21.637172,6.9645 20.406916,-0.0284 36.978106,-16.62397 36.948716,-36.99518 -0.0118,-8.05783 -2.60742,-15.521 -7.03477,-21.58386 -2.31358,-3.20741 -5.16001,-6.03939 -8.38061,-8.34134 -6.084655,-4.4024 -13.568036,-6.9723 -21.639126,-6.96052 -20.404957,0.0284 -36.97811,16.62203 -36.948722,36.99325 M 7.0176588,281.89229 42.350205,246.51631 c -1.696498,-2.14342 -3.208841,-4.43756 -4.533127,-6.85101 -0.04116,-0.0766 -0.07442,-0.15658 -0.117569,-0.23275 -0.587698,-1.08737 -1.146016,-2.19238 -1.653395,-3.32672 -0.223354,-0.49891 -0.405489,-1.01504 -0.611211,-1.52156 -0.299704,-0.73734 -0.615122,-1.46881 -0.881548,-2.22564 -0.188091,-0.53789 -0.333037,-1.09139 -0.503441,-1.63703 -0.238989,-0.76076 -0.489727,-1.5157 -0.691525,-2.2941 -0.08424,-0.32689 -0.139118,-0.66103 -0.215515,-0.99161 -0.859996,-3.62794 -1.349753,-7.39666 -1.355628,-11.28469 -0.01008,-6.61442 1.296862,-12.92176 3.655496,-18.68933 0.02716,-0.0667 0.05107,-0.13293 0.07836,-0.19916 0.272327,-0.65517 0.560272,-1.30058 0.858039,-1.94014 0.03941,-0.0861 0.07639,-0.17172 0.115553,-0.2583 0.311488,-0.65913 0.642552,-1.30848 0.981464,-1.95191 0.03108,-0.0563 0.05874,-0.1178 0.09015,-0.17599 8.286577,-15.51309 24.638356,-26.08399 43.485906,-26.11138 4.008116,-0.004 7.896733,0.49285 11.630592,1.39061 0.229158,0.0558 0.462338,0.0899 0.689566,0.14854 0.826697,0.21099 1.629887,0.47511 2.440911,0.72759 0.497611,0.1547 1.003013,0.28385 1.49472,0.45558 0.814946,0.28148 1.604422,0.61802 2.399777,0.94265 0.44862,0.18166 0.90898,0.34014 1.35172,0.53775 3.74952,1.6604 7.25418,3.77066 10.43756,6.27409 3.12068,2.41922 5.94752,5.21203 8.40019,8.3218 1.69846,2.15131 3.21081,4.45127 4.53705,6.87059 0.0142,0.0237 0.0232,0.0501 0.035,0.0724 0.62101,1.13822 1.20283,2.30194 1.73567,3.49301 0.19784,0.44375 0.35656,0.8996 0.54071,1.34746 0.32713,0.79799 0.6641,1.58808 0.95207,2.4056 0.16847,0.48292 0.29781,0.98178 0.45056,1.4708 0.25863,0.81747 0.52699,1.62715 0.74246,2.46028 0.0724,0.28385 0.1195,0.5711 0.18606,0.85665 0.87764,3.66516 1.37718,7.47689 1.38306,11.40801 0.0393,27.20855 -22.03289,49.28715 -49.264973,49.32627 -4.111937,0.004 -8.094582,-0.51059 -11.912677,-1.45121 -0.125413,-0.0331 -0.252718,-0.0502 -0.378131,-0.0823 -0.922694,-0.23417 -1.819912,-0.52611 -2.721053,-0.81161 -0.405521,-0.12915 -0.816904,-0.23275 -1.218504,-0.37136 -0.822775,-0.28574 -1.62009,-0.62191 -2.419363,-0.94857 -0.452498,-0.18403 -0.912896,-0.3444 -1.359547,-0.54163 -0.942279,-0.41678 -1.857135,-0.88796 -2.768068,-1.36123 -0.278169,-0.14665 -0.56615,-0.26965 -0.844329,-0.42104 -2.399777,-1.31032 -4.683972,-2.8104 -6.825161,-4.4885 L 15.39792,290.2526 c -1.144053,1.14613 -2.662284,1.7387 -4.182464,1.74064 -1.5005946,0.002 -3.0188256,-0.58666 -4.1863837,-1.72692 -2.3116242,-2.30388 -2.3174982,-6.04521 -0.011827,-8.37455" />
    <path
       style="fill:#77ccd3;fill-opacity:1;fill-rule:evenodd;stroke-width:1.59298038"
       d="M 453.52148 91.542969 C 459.78692 99.535196 465.38717 108.05409 470.30078 117.01758 C 470.35445 117.10715 470.39485 117.21102 470.43945 117.29492 C 472.78662 121.59689 474.98612 125.9866 477 130.48828 C 477.74774 132.16541 478.34701 133.89714 479.04297 135.58984 C 480.27937 138.60583 481.54829 141.5918 482.63672 144.68164 C 483.27342 146.50685 483.75858 148.38611 484.33594 150.23438 C 485.31344 153.32403 486.33207 156.39022 487.14648 159.53906 C 487.4205 160.61188 487.59647 161.69419 487.84766 162.77344 C 491.16468 176.62605 493.05594 191.02699 493.07812 205.88477 C 493.22666 308.72023 409.80137 392.16855 306.87695 392.31641 C 291.33577 392.33152 276.28216 390.39299 261.85156 386.83789 C 261.37756 386.71279 260.90369 386.63499 260.42969 386.51367 C 256.94234 385.62862 253.55042 384.52632 250.14453 383.44727 C 248.61185 382.95914 247.05303 382.57661 245.53516 382.05273 C 242.42547 380.97277 239.41736 379.70142 236.39648 378.4668 C 234.68626 377.77129 232.93813 377.17137 231.25 376.42578 C 227.68863 374.85055 224.23392 373.06608 220.79102 371.27734 C 219.73967 370.72308 218.6549 370.2616 217.60352 369.68945 C 208.53349 364.73702 199.89737 359.06703 191.80469 352.72461 L 58.197266 486.49805 C 53.87329 490.82988 48.134219 493.06884 42.388672 493.07617 C 37.612226 493.07995 32.836377 491.41733 28.796875 488.3457 L 52.318359 511.86719 C 53.536327 511.94558 54.761553 512 56 512 L 456 512 C 487.024 512 512 487.024 512 456 L 512 150.02148 L 453.52148 91.542969 z "
       id="rect36"
       transform="matrix(0.26458333,0,0,0.26458333,0,161.53334)" />
    <g
       aria-label="Aa"
       style="font-style:normal;font-variant:normal;font-weight:bold;font-stretch:normal;font-size:8.57598209px;line-height:1.25;font-family:Roboto;-inkscape-font-specification:'Roboto Bold';letter-spacing:0px;word-spacing:0px;fill:#32aaac;fill-opacity:1;stroke:none;stroke-width:0.21439955"
       id="text2446"
       transform="matrix(4.7307692,0,0,4.7307694,0.28493594,-1108.0386)">
      <path
         inkscape:connector-curvature="0"
         d="m 15.969263,281.5048 h -2.202621 l -0.418749,1.25625 h -1.33581 l 2.269621,-6.09699 h 1.164122 l 2.282183,6.09699 h -1.33581 z m -1.863434,-1.01756 h 1.524247 l -0.766311,-2.28218 z"
         style="fill:#32aaac;fill-opacity:1;stroke-width:0.21439955"
         id="path2456" />
      <path
         inkscape:connector-curvature="0"
         d="m 20.843502,282.76105 q -0.08375,-0.16331 -0.121437,-0.40619 -0.439687,0.48994 -1.143185,0.48994 -0.665811,0 -1.105498,-0.38525 -0.435499,-0.38525 -0.435499,-0.9715 0,-0.72025 0.531812,-1.1055 0.535998,-0.38525 1.545184,-0.38943 h 0.556936 v -0.25963 q 0,-0.31406 -0.163312,-0.5025 -0.159125,-0.18843 -0.506686,-0.18843 -0.305687,0 -0.481562,0.14656 -0.171687,0.14656 -0.171687,0.402 h -1.210185 q 0,-0.39363 0.242874,-0.72863 0.242875,-0.335 0.686749,-0.52343 0.443874,-0.19263 0.996623,-0.19263 0.837498,0 1.327435,0.42294 0.494124,0.41875 0.494124,1.18087 v 1.96393 q 0.0042,0.64488 0.180062,0.97569 v 0.0712 z m -1.00081,-0.84169 q 0.267999,0 0.494124,-0.11725 0.226124,-0.12144 0.334999,-0.32243 v -0.77888 h -0.452249 q -0.908685,0 -0.96731,0.62813 l -0.0042,0.0712 q 0,0.22613 0.159125,0.37269 0.159124,0.14656 0.435499,0.14656 z"
         style="fill:#32aaac;fill-opacity:1;stroke-width:0.21439955"
         id="path2458" />
    </g>
    <rect
       style="opacity:0.50199998;fill:#000000;fill-opacity:0;fill-rule:nonzero;stroke:none;stroke-width:0.26458332;stroke-opacity:1;paint-order:markers fill stroke"
       id="rect37"
       width="74.612495"
       height="62.441666"
       x="-190.76459"
       y="169.20625" />
    <rect
       style="opacity:0.50199998;fill:#000000;fill-opacity:0;fill-rule:nonzero;stroke:none;stroke-width:0.26458332;stroke-opacity:1;paint-order:markers fill stroke"
       id="rect39"
       width="16.139584"
       height="16.139584"
       x="-173.56667"
       y="217.88959"
       ry="0" />
    <rect
       style="opacity:0.50199998;fill:#000000;fill-opacity:0;fill-rule:nonzero;stroke:none;stroke-width:0.26458332;stroke-opacity:1;paint-order:markers fill stroke"
       id="rect41"
       width="115.8875"
       height="89.429169"
       x="-225.95416"
       y="202.54376" />
    <rect
       style="opacity:0.50199998;fill:#000000;fill-opacity:0;fill-rule:nonzero;stroke:none;stroke-width:0.26458332;stroke-opacity:1;paint-order:markers fill stroke"
       id="rect43"
       width="19.314583"
       height="11.90625"
       x="166.95209"
       y="134.81042" />
  </g>
</svg>
